<svg xmlns="http://www.w3.org/2000/svg" width="195" height="167" viewBox="0 0 195 167">
  <g id="Group_82" data-name="Group 82" transform="translate(-543 -5205)">
    <ellipse id="Ellipse_1" data-name="Ellipse 1" cx="74.5" cy="74" rx="74.5" ry="74" transform="translate(589 5217)" fill="#3677b8"/>
    <circle id="Ellipse_2" data-name="Ellipse 2" cx="16" cy="16" r="16" transform="translate(549 5246)" fill="#3677b8"/>
    <g id="Group_59" data-name="Group 59" transform="translate(544 5206)">
      <path id="Path_2" data-name="Path 2" d="M-344.764,413.136a8.578,8.578,0,0,0-12.137,0l-9.435,9.435-2.7-1.617a102.455,102.455,0,0,1-35.129-35.129l-1.617-2.7,9.435-9.435a8.578,8.578,0,0,0,0-12.137l-16.687-16.687a8.591,8.591,0,0,0-12.136,0l-12.394,12.393a13.976,13.976,0,0,0-3.894,12.153,50.667,50.667,0,0,0,9.2,22.375c11.246,15.335,19.984,23.621,31.648,35.285A221.891,221.891,0,0,0-375,449.047a50.545,50.545,0,0,0,21.466,9.049,16.875,16.875,0,0,0,3.19.339,13.978,13.978,0,0,0,9.87-4.084l12.393-12.393a8.577,8.577,0,0,0,0-12.136ZM-422.133,347.9a4.3,4.3,0,0,1,6.069,0l16.687,16.687a4.288,4.288,0,0,1,0,6.067l-3.034,3.035-22.755-22.755Zm78.627,103.413a9.673,9.673,0,0,1-8.414,2.7,46.338,46.338,0,0,1-20.542-8.428,217.75,217.75,0,0,1-25.111-21.543c-11.38-11.382-20.069-19.582-31.221-34.789a46.358,46.358,0,0,1-8.429-20.543,9.676,9.676,0,0,1,2.7-8.414l6.325-6.324,22.755,22.755-4.55,4.551a2.145,2.145,0,0,0-.323,2.622l2.479,4.132a106.73,106.73,0,0,0,36.6,36.6l4.132,2.479a2.148,2.148,0,0,0,2.622-.323l4.551-4.552,22.755,22.755Zm12.393-12.393-3.034,3.034L-356.9,419.2l3.035-3.034a4.288,4.288,0,0,1,6.067,0l16.688,16.688a4.288,4.288,0,0,1,0,6.067Zm0,0" transform="translate(441.644 -292.436)" fill="#fff"/>
      <g id="Group_8" data-name="Group 8" transform="translate(64.159 0)">
        <path id="Path_3" data-name="Path 3" d="M-227.62,307.486a2.172,2.172,0,0,1-.837-.167,2.189,2.189,0,0,1-1.352-2.023V291a45.316,45.316,0,0,1-22.707-15.32,44.566,44.566,0,0,1-9.691-27.911,45.083,45.083,0,0,1,45.031-45.031h22.033a45.083,45.083,0,0,1,45.031,45.031,45.061,45.061,0,0,1-5.676,21.9,2.19,2.19,0,0,1-2.978.846,2.189,2.189,0,0,1-.845-2.979,40.676,40.676,0,0,0,5.121-19.769,40.7,40.7,0,0,0-40.653-40.652h-22.033a40.7,40.7,0,0,0-40.653,40.652A40.581,40.581,0,0,0-227.087,287.2a2.191,2.191,0,0,1,1.658,2.124V300.01l10.951-10.951a2.189,2.189,0,0,1,1.548-.641h17.788a40.423,40.423,0,0,0,23.028-7.146,2.19,2.19,0,0,1,3.045.561,2.19,2.19,0,0,1-.561,3.046,44.78,44.78,0,0,1-25.512,7.919h-16.881l-14.047,14.047a2.186,2.186,0,0,1-1.549.642Zm0,0" transform="translate(262.207 -202.734)" fill="#fff"/>
        <path id="Path_4" data-name="Path 4" d="M10.048,407.564a2.191,2.191,0,1,1,1.548-.642,2.208,2.208,0,0,1-1.548.642Zm0,0" transform="translate(88.706 -331.512)" fill="#fff"/>
        <path id="Path_26" data-name="Path 26" d="M10.048,407.564a2.191,2.191,0,1,1,1.548-.642,2.208,2.208,0,0,1-1.548.642Zm0,0" transform="translate(31.706 -361.512)" fill="#fff"/>
        <path id="Path_27" data-name="Path 27" d="M10.048,407.564a2.191,2.191,0,1,1,1.548-.642,2.208,2.208,0,0,1-1.548.642Zm0,0" transform="translate(45.999 -361.512)" fill="#fff"/>
        <path id="Path_28" data-name="Path 28" d="M10.048,407.564a2.191,2.191,0,1,1,1.548-.642,2.208,2.208,0,0,1-1.548.642Zm0,0" transform="translate(58.999 -361.512)" fill="#fff"/>
      </g>
    </g>
    <g id="Group_9" data-name="Group 9" transform="translate(543 5205)">
      <path id="Path_2-2" data-name="Path 2" d="M-344.764,413.136a8.578,8.578,0,0,0-12.137,0l-9.435,9.435-2.7-1.617a102.455,102.455,0,0,1-35.129-35.129l-1.617-2.7,9.435-9.435a8.578,8.578,0,0,0,0-12.137l-16.687-16.687a8.591,8.591,0,0,0-12.136,0l-12.394,12.393a13.976,13.976,0,0,0-3.894,12.153,50.667,50.667,0,0,0,9.2,22.375c11.246,15.335,19.984,23.621,31.648,35.285A221.891,221.891,0,0,0-375,449.047a50.545,50.545,0,0,0,21.466,9.049,16.875,16.875,0,0,0,3.19.339,13.978,13.978,0,0,0,9.87-4.084l12.393-12.393a8.577,8.577,0,0,0,0-12.136ZM-422.133,347.9a4.3,4.3,0,0,1,6.069,0l16.687,16.687a4.288,4.288,0,0,1,0,6.067l-3.034,3.035-22.755-22.755Zm78.627,103.413a9.673,9.673,0,0,1-8.414,2.7,46.338,46.338,0,0,1-20.542-8.428,217.75,217.75,0,0,1-25.111-21.543c-11.38-11.382-20.069-19.582-31.221-34.789a46.358,46.358,0,0,1-8.429-20.543,9.676,9.676,0,0,1,2.7-8.414l6.325-6.324,22.755,22.755-4.55,4.551a2.145,2.145,0,0,0-.323,2.622l2.479,4.132a106.73,106.73,0,0,0,36.6,36.6l4.132,2.479a2.148,2.148,0,0,0,2.622-.323l4.551-4.552,22.755,22.755Zm12.393-12.393-3.034,3.034L-356.9,419.2l3.035-3.034a4.288,4.288,0,0,1,6.067,0l16.688,16.688a4.288,4.288,0,0,1,0,6.067Zm0,0" transform="translate(441.644 -292.436)" fill="#444"/>
      <g id="Group_8-2" data-name="Group 8" transform="translate(64.159 0)">
        <path id="Path_3-2" data-name="Path 3" d="M-227.62,307.486a2.172,2.172,0,0,1-.837-.167,2.189,2.189,0,0,1-1.352-2.023V291a45.316,45.316,0,0,1-22.707-15.32,44.566,44.566,0,0,1-9.691-27.911,45.083,45.083,0,0,1,45.031-45.031h22.033a45.083,45.083,0,0,1,45.031,45.031,45.061,45.061,0,0,1-5.676,21.9,2.19,2.19,0,0,1-2.978.846,2.189,2.189,0,0,1-.845-2.979,40.676,40.676,0,0,0,5.121-19.769,40.7,40.7,0,0,0-40.653-40.652h-22.033a40.7,40.7,0,0,0-40.653,40.652A40.581,40.581,0,0,0-227.087,287.2a2.191,2.191,0,0,1,1.658,2.124V300.01l10.951-10.951a2.189,2.189,0,0,1,1.548-.641h17.788a40.423,40.423,0,0,0,23.028-7.146,2.19,2.19,0,0,1,3.045.561,2.19,2.19,0,0,1-.561,3.046,44.78,44.78,0,0,1-25.512,7.919h-16.881l-14.047,14.047a2.186,2.186,0,0,1-1.549.642Zm0,0" transform="translate(262.207 -202.734)" fill="#444"/>
        <path id="Path_4-2" data-name="Path 4" d="M10.048,407.564a2.191,2.191,0,1,1,1.548-.642,2.208,2.208,0,0,1-1.548.642Zm0,0" transform="translate(88.706 -331.512)" fill="#444"/>
        <path id="Path_26-2" data-name="Path 26" d="M10.048,407.564a2.191,2.191,0,1,1,1.548-.642,2.208,2.208,0,0,1-1.548.642Zm0,0" transform="translate(31.706 -361.512)" fill="#444"/>
        <path id="Path_27-2" data-name="Path 27" d="M10.048,407.564a2.191,2.191,0,1,1,1.548-.642,2.208,2.208,0,0,1-1.548.642Zm0,0" transform="translate(45.999 -361.512)" fill="#444"/>
        <path id="Path_28-2" data-name="Path 28" d="M10.048,407.564a2.191,2.191,0,1,1,1.548-.642,2.208,2.208,0,0,1-1.548.642Zm0,0" transform="translate(58.999 -361.512)" fill="#444"/>
      </g>
    </g>
  </g>
</svg>
