<svg xmlns="http://www.w3.org/2000/svg" width="36" height="25" viewBox="0 0 36 25"><g><g><g><path fill="#f0f0f0" d="M.495 24.17V.83h35.01v23.34z"/></g><g><path fill="#d80027" d="M20.188.83h-4.376v9.482H.495v4.376h15.317v9.482h4.376v-9.482h15.317v-4.376H20.188z"/></g><g><g><path fill="#0052b4" d="M27.421 16.559l8.084 4.49v-4.49z"/></g><g><path fill="#0052b4" d="M21.805 16.559l13.7 7.61v-2.152l-9.826-5.458z"/></g><g><path fill="#0052b4" d="M31.856 24.17l-10.05-5.584v5.584z"/></g></g><g><path fill="#f0f0f0" d="M21.805 16.559l13.7 7.61v-2.152l-9.826-5.458z"/></g><g><path fill="#d80027" d="M21.805 16.559l13.7 7.61v-2.152l-9.826-5.458z"/></g><g><g><path fill="#0052b4" d="M6.673 16.559L.495 19.99v-3.432z"/></g><g><path fill="#0052b4" d="M14.195 17.526v6.643H2.238z"/></g></g><g><path fill="#d80027" d="M10.32 16.559L.496 22.017v2.153l13.7-7.611z"/></g><g><g><path fill="#0052b4" d="M8.579 8.44L.495 3.95v4.49z"/></g><g><path fill="#0052b4" d="M14.195 8.44L.495.83v2.152l9.826 5.459z"/></g><g><path fill="#0052b4" d="M4.144.83l10.05 5.584V.83z"/></g></g><g><path fill="#f0f0f0" d="M14.195 8.44L.495.83v2.152l9.826 5.459z"/></g><g><path fill="#d80027" d="M14.195 8.44L.495.83v2.152l9.826 5.459z"/></g><g><g><path fill="#0052b4" d="M29.327 8.44l6.178-3.431V8.44z"/></g><g><path fill="#0052b4" d="M21.805 7.473V.83h11.957z"/></g></g><g><path fill="#d80027" d="M25.68 8.44l9.825-5.458V.83l-13.7 7.61z"/></g></g></g></svg>