<svg xmlns="http://www.w3.org/2000/svg" width="26" height="33" viewBox="0 0 26 33"><g><g><path fill="#fff" d="M11 5.41l.003-.004.005.003L11 5.41zm2.073-.251c4.08 0 7.59 3.47 7.59 7.976 0 4.06-3.51 7.528-7.61 7.528-4.55 0-8.059-3.468-8.059-7.528 0-1.898.612-3.59 1.672-4.936v.04a3.038 3.038 0 0 0 3.06 3.039c1.694.001 3.125-1.388 3.125-3.08 0-1.247-.76-2.32-1.843-2.79a8.617 8.617 0 0 1 2.065-.25zm-.038 27.662c2.55 0 12.667-11.478 12.667-19.171C25.702 6.286 19.95.18 13.035.18 5.752.18 0 6.284 0 13.65c0 7.692 10.117 19.17 13.035 19.17z"/></g></g></svg>