<svg id="Capa_1" enable-background="new 0 0 512 512" height="512" viewBox="0 0 512 512" width="512" xmlns="http://www.w3.org/2000/svg"><g><g><path d="m421.67 0h-331.34c-15.274 0-27.7 12.426-27.7 27.699v375.78c0 4.143 3.357 7.5 7.5 7.5s7.5-3.357 7.5-7.5v-375.78c0-7.002 5.697-12.699 12.7-12.699h331.34c7.003 0 12.7 5.697 12.7 12.699v52.37c0 4.143 3.357 7.5 7.5 7.5s7.5-3.357 7.5-7.5v-52.37c0-15.273-12.425-27.699-27.7-27.699z"/><path d="m441.87 107.57c-4.143 0-7.5 3.357-7.5 7.5v369.23c0 7.003-5.697 12.7-12.7 12.7h-331.34c-7.003 0-12.7-5.697-12.7-12.7v-45.82c0-4.143-3.357-7.5-7.5-7.5s-7.5 3.357-7.5 7.5v45.82c0 15.274 12.426 27.7 27.7 27.7h331.34c15.274 0 27.7-12.426 27.7-27.7v-369.23c0-4.143-3.357-7.5-7.5-7.5z"/><path d="m353.388 410.984c13.048 0 23.663-10.615 23.663-23.662v-28.285c0-13.047-10.615-23.662-23.663-23.662-13.047 0-23.662 10.615-23.662 23.662v28.285c0 13.047 10.615 23.662 23.662 23.662zm-8.662-51.947c0-4.776 3.886-8.662 8.662-8.662 4.777 0 8.663 3.886 8.663 8.662v28.285c0 4.776-3.886 8.662-8.663 8.662-4.776 0-8.662-3.886-8.662-8.662z"/><path d="m185.26 353.41c4.143 0 7.5-3.357 7.5-7.5s-3.357-7.5-7.5-7.5h-62.6c-2.376 0-4.612 1.126-6.026 3.036l-20.2 27.27c-1.965 2.651-1.965 6.276 0 8.928l20.2 27.271c1.414 1.91 3.65 3.036 6.026 3.036h15.311c1.989 0 3.896-.79 5.304-2.197l7.576-7.576 7.576 7.576c1.407 1.407 3.314 2.197 5.304 2.197h11.55c1.988 0 3.895-.789 5.302-2.194l7.656-7.651 7.648 7.649c1.407 1.406 3.314 2.196 5.304 2.196h59.068c6.143 13.174 15.632 24.448 27.674 32.819 13.798 9.591 30.001 14.66 46.858 14.66 45.353 0 82.25-36.898 82.25-82.25s-36.898-82.25-82.25-82.25c-16.856 0-33.06 5.069-46.858 14.661-12.042 8.37-21.531 19.646-27.674 32.819h-39.999c-4.143 0-7.5 3.357-7.5 7.5s3.357 7.5 7.5 7.5h44.94c3.085 0 5.855-1.89 6.982-4.762 10.178-25.95 34.753-42.719 62.608-42.719 37.082 0 67.25 30.168 67.25 67.25s-30.168 67.25-67.25 67.25c-27.855 0-52.43-16.768-62.608-42.718-1.127-2.872-3.897-4.762-6.982-4.762h-60.903l-10.753-10.754c-2.929-2.926-7.675-2.93-10.605-.002l-10.763 10.756h-5.339l-10.683-10.684c-1.407-1.407-3.314-2.197-5.304-2.197s-3.897.79-5.304 2.197l-10.683 10.684h-8.426l-14.645-19.771 14.645-19.77h58.823z"/><path d="m314.421 397.424v-48.488c0-4.143-3.357-7.5-7.5-7.5s-7.5 3.357-7.5 7.5v48.488c0 4.143 3.357 7.5 7.5 7.5s7.5-3.358 7.5-7.5z"/><path d="m94.956 183.269c0 23.2 12.604 43.501 31.315 54.452v53.635c0 2.508 1.253 4.85 3.34 6.24 1.25.834 2.701 1.26 4.161 1.26.976 0 1.956-.19 2.884-.577l21.359-8.899 21.358 8.899c2.315.964 4.96.708 7.045-.683 2.087-1.391 3.34-3.732 3.34-6.24v-53.634c18.711-10.95 31.315-31.251 31.315-54.452 0-34.771-28.288-63.059-63.059-63.059s-63.058 28.287-63.058 63.058zm79.802 96.836-13.858-5.774c-1.846-.77-3.924-.77-5.77 0l-13.859 5.774v-36.052c5.336 1.472 10.947 2.274 16.744 2.274s11.407-.802 16.743-2.274zm-16.744-144.895c26.5 0 48.059 21.559 48.059 48.059s-21.559 48.059-48.059 48.059-48.059-21.559-48.059-48.059 21.559-48.059 48.059-48.059z"/><path d="m158.014 214.002c8.202 0 15.918-3.199 21.726-9.009 2.929-2.93 2.929-7.678-.001-10.606-2.931-2.929-7.68-2.929-10.606.001-2.975 2.976-6.924 4.614-11.118 4.614-8.676 0-15.734-7.058-15.734-15.733s7.059-15.733 15.734-15.733c4.194 0 8.144 1.639 11.118 4.614 2.93 2.929 7.679 2.93 10.606.001 2.93-2.929 2.93-7.677.001-10.606-5.808-5.81-13.523-9.009-21.726-9.009-16.947 0-30.734 13.787-30.734 30.733s13.787 30.733 30.734 30.733z"/><path d="m409.544 184.861h-157.585c-4.143 0-7.5 3.357-7.5 7.5s3.357 7.5 7.5 7.5h157.585c4.143 0 7.5-3.357 7.5-7.5s-3.357-7.5-7.5-7.5z"/><path d="m409.544 120.21h-117.178c-4.143 0-7.5 3.357-7.5 7.5s3.357 7.5 7.5 7.5h117.178c4.143 0 7.5-3.357 7.5-7.5 0-4.142-3.357-7.5-7.5-7.5z"/><path d="m409.544 152.535h-157.585c-4.143 0-7.5 3.357-7.5 7.5s3.357 7.5 7.5 7.5h157.585c4.143 0 7.5-3.357 7.5-7.5s-3.357-7.5-7.5-7.5z"/><path d="m273.708 232.185c4.143 0 7.5-3.357 7.5-7.5s-3.357-7.5-7.5-7.5h-21.749c-4.143 0-7.5 3.357-7.5 7.5s3.357 7.5 7.5 7.5z"/><path d="m359.036 232.185c4.143 0 7.5-3.357 7.5-7.5s-3.357-7.5-7.5-7.5h-53.003c-4.143 0-7.5 3.357-7.5 7.5s3.357 7.5 7.5 7.5z"/><path d="m357.016 32.325h-202.032c-4.143 0-7.5 3.357-7.5 7.5v32.325c0 4.143 3.357 7.5 7.5 7.5h202.032c4.143 0 7.5-3.357 7.5-7.5v-32.325c0-4.142-3.358-7.5-7.5-7.5zm-7.5 32.326h-187.032v-17.326h187.032z"/></g></g></svg>