<svg xmlns="http://www.w3.org/2000/svg" width="89.998" height="94.47" viewBox="0 0 89.998 94.47"><defs><style>.a{fill:#95c11f;}</style></defs><g transform="translate(-12.117)"><path class="a" d="M99.349,57.486h0L97.289,56.3a10.582,10.582,0,0,1,0-18.122l2.06-1.19a5.541,5.541,0,0,0,2.026-7.561l-6.7-11.612a5.541,5.541,0,0,0-7.561-2.026L85.059,16.97c-6.766,3.906-15.7-1.116-15.7-9.046V5.535A5.542,5.542,0,0,0,63.821,0H50.413a5.542,5.542,0,0,0-5.535,5.535V7.924c0,7.933-8.938,12.951-15.7,9.046l-2.051-1.184a5.532,5.532,0,0,0-7.561,2.026l-6.7,11.612a5.541,5.541,0,0,0,2.026,7.561l2.06,1.189a10.582,10.582,0,0,1,0,18.122l-2.06,1.189a5.542,5.542,0,0,0-2.026,7.561l6.7,11.612a5.541,5.541,0,0,0,7.561,2.026L29.174,77.5c6.766-3.906,15.7,1.116,15.7,9.046v2.389a5.542,5.542,0,0,0,5.535,5.535H63.82a5.542,5.542,0,0,0,5.535-5.535V86.546c0-7.917,8.926-12.959,15.7-9.046l2.051,1.184a5.541,5.541,0,0,0,7.561-2.026l6.7-11.612A5.541,5.541,0,0,0,99.349,57.486ZM89.878,73.891l-2.051-1.184C77.39,66.68,63.821,74.335,63.821,86.546v2.388H50.413V86.546A16.131,16.131,0,0,0,34.262,70.615c-4.76,0-7.574,1.929-9.906,3.275l-6.7-11.612,2.06-1.189c10.518-6.073,10.5-21.645,0-27.71l-2.06-1.189,6.7-11.612,2.051,1.184c10.437,6.026,24.006-1.628,24.006-13.84V5.535H63.821V7.924c0,12.2,13.56,19.871,24.006,13.84l2.051-1.184,6.7,11.612-2.06,1.189c-10.553,6.093-10.459,21.671,0,27.71l2.06,1.189Z" transform="translate(0)"/><path class="a" d="M149.812,125.786a24.026,24.026,0,1,0,24.026,24.026,24.053,24.053,0,0,0-24.026-24.026Zm0,42.517A18.491,18.491,0,1,1,168.3,149.812,18.512,18.512,0,0,1,149.812,168.3Z" transform="translate(-92.695 -102.577)"/><path class="a" d="M202.4,193.124v-3.774a2.768,2.768,0,1,0-5.535,0v3.774h-6.952v-3.774a2.768,2.768,0,0,0-5.535,0v3.774H182a2.768,2.768,0,0,0,0,5.535h.758l-.037,5.159a8.194,8.194,0,0,0,8.2,8.381h4.9a8.154,8.154,0,0,0,8.2-7.991c0-.016,0-.033,0-.049l.043-5.5h.74a2.768,2.768,0,1,0,0-5.535H202.4Zm-3.932,10.964a2.65,2.65,0,0,1-2.663,2.576h-4.9a2.663,2.663,0,0,1-2.663-2.732c0-.017,0-.034,0-.051l.038-5.221h10.226Z" transform="translate(-136.277 -152.156)"/></g></svg>