<svg xmlns="http://www.w3.org/2000/svg" width="101.872" height="73.461" viewBox="0 0 101.872 73.461"><defs><style>.a{fill:#95c11f;stroke:#95c11f;}</style></defs><g transform="translate(0.528 -8.5)"><path class="a" d="M100.354,45.692,72,17.338a.67.67,0,0,0-.146-.112,1.55,1.55,0,0,0-.967-.35H66.812L72,11.689A1.575,1.575,0,0,0,70.886,9H29.93a1.568,1.568,0,0,0-1.114.462L.462,37.816A1.575,1.575,0,0,0,1.575,40.5H5.649L.462,45.692a1.575,1.575,0,0,0,1.114,2.689h3.15v31.5A1.574,1.574,0,0,0,6.3,81.461H94.514a1.574,1.574,0,0,0,1.575-1.575v-31.5h3.15a1.575,1.575,0,0,0,1.114-2.689ZM61.9,17.336l0,0-5.838,5.838H46.334L57.361,12.15h9.722ZM17.98,37.354,29.007,26.328h9.722L27.7,37.354Zm34.926-25.2L41.879,23.177H32.157L43.184,12.15ZM43.184,26.328h9.722L41.879,37.354H32.157ZM30.582,12.15h8.147L27.7,23.177H19.555ZM16.4,26.328h8.147L13.525,37.354H5.378ZM10.1,40.5H42.532a1.578,1.578,0,0,0,1.114-.462L63.662,20.027h3.421l-25.2,25.2H5.378ZM7.876,48.381H45.682V78.31H7.876ZM64.585,78.31V56.257h12.6V78.31Zm29.93-33.08a1.574,1.574,0,0,0-1.575,1.575v31.5h-12.6V54.682a1.574,1.574,0,0,0-1.575-1.575H63.01a1.574,1.574,0,0,0-1.575,1.575V78.31h-12.6v-31.5a1.574,1.574,0,0,0-1.575-1.575h-.923L70.886,20.679,95.437,45.23Z" transform="translate(0 0)"/><path class="a" d="M47.876,24a7.876,7.876,0,1,0,7.876,7.876A7.885,7.885,0,0,0,47.876,24Zm0,12.6A4.726,4.726,0,1,1,52.6,31.876,4.731,4.731,0,0,1,47.876,36.6Z" transform="translate(23.01 8.629)"/><path class="a" d="M36.93,37H8.575A1.574,1.574,0,0,0,7,38.575V54.328A1.574,1.574,0,0,0,8.575,55.9H36.93A1.574,1.574,0,0,0,38.5,54.328V38.575A1.575,1.575,0,0,0,36.93,37ZM10.15,40.15H21.177v12.6H10.15Zm25.2,12.6H24.328V40.15H35.354Z" transform="translate(4.027 16.107)"/></g></svg>