<svg xmlns="http://www.w3.org/2000/svg" width="73.667" height="73.667" viewBox="0 0 73.667 73.667"><defs><style>.a{fill:#95c11f;}</style></defs><g transform="translate(0 0.001)"><path class="a" d="M344.342,344.342a7.913,7.913,0,1,0,11.191,0,7.923,7.923,0,0,0-11.191,0Zm8.139,8.139a3.6,3.6,0,1,1,0-5.087A3.6,3.6,0,0,1,352.481,352.481Zm0,0" transform="translate(-292.816 -292.817)"/><path class="a" d="M72.154,342.633l-11.51,11.51A2.158,2.158,0,1,0,63.7,357.2l11.51-11.51a2.158,2.158,0,0,0-3.052-3.052Zm0,0" transform="translate(-51.377 -292.794)"/><path class="a" d="M53.249,41.04l-5.732-5.732,14-14,6.155-2.352a2.158,2.158,0,0,0,1.212-1.163l4.606-10.71A2.158,2.158,0,0,0,73.035,4.7L68.966.633A2.159,2.159,0,0,0,66.587.176L55.877,4.782a2.159,2.159,0,0,0-1.164,1.212l-2.351,6.155-14,14-5.737-5.738A16.537,16.537,0,0,0,10.5,1.141a2.158,2.158,0,0,0-.739,3.536l7.361,7.361-1.272,3.815-3.815,1.272L4.678,9.763a2.158,2.158,0,0,0-3.536.739A16.521,16.521,0,0,0,20.415,32.622l4.211,4.211h0a2.158,2.158,0,0,1-3.053,3.051,2.158,2.158,0,0,0-3.052,0L3.162,55.245a10.791,10.791,0,0,0,15.261,15.26L33.783,55.146a2.158,2.158,0,0,0,0-3.052,2.158,2.158,0,0,1,3.051-3.054h0l4.206,4.206A16.546,16.546,0,1,0,53.249,41.039ZM55.74,14.876a2.161,2.161,0,0,0,.49-.755l2.19-5.733L66.948,4.72l2,2-3.667,8.528-5.733,2.19a2.158,2.158,0,0,0-.756.49L39.378,37.342,36.326,34.29ZM20.37,28.15a12.217,12.217,0,0,1-16.012-12.6L9.93,21.119a2.157,2.157,0,0,0,2.208.522l6.1-2.035a2.157,2.157,0,0,0,1.365-1.365l2.035-6.1a2.157,2.157,0,0,0-.522-2.208L15.548,4.356a12.218,12.218,0,0,1,12.6,16.013,2.157,2.157,0,0,0,.524,2.2L35.308,29.2l-2.035,2.035-1.526-1.526a2.159,2.159,0,0,0-3.052,0l-2.543,2.544-3.581-3.582a2.159,2.159,0,0,0-2.2-.524Zm10.36,17.84a6.486,6.486,0,0,0-1.265,7.369l-14.095,14.1A6.474,6.474,0,1,1,6.215,58.3L20.309,44.2a6.475,6.475,0,0,0,8.633-8.633l1.279-1.279,9.157,9.156L38.1,44.725a6.486,6.486,0,0,0-7.369,1.264ZM65.769,65.768A12.225,12.225,0,0,1,45.513,53.292a2.159,2.159,0,0,0-.524-2.2l-3.576-3.576,2.543-2.543a2.158,2.158,0,0,0,0-3.052L42.43,40.394l2.035-2.035,6.628,6.628a2.159,2.159,0,0,0,2.2.524A12.225,12.225,0,0,1,65.769,65.768Zm0,0" transform="translate(0 0)"/></g></svg>