<svg xmlns="http://www.w3.org/2000/svg" width="33" height="33" viewBox="0 0 33 33"><g><g><path fill="#fff" d="M25.58 11.75c.015.204.015.415.015.619 0 6.317-4.808 13.595-13.595 13.595-2.71 0-5.224-.786-7.337-2.142.386.044.758.059 1.151.059a9.58 9.58 0 0 0 5.93-2.04 4.785 4.785 0 0 1-4.465-3.315c.735.109 1.398.109 2.156-.088a4.779 4.779 0 0 1-3.825-4.692v-.058a4.775 4.775 0 0 0 2.157.604 4.768 4.768 0 0 1-2.128-3.978c0-.889.233-1.705.649-2.411a13.568 13.568 0 0 0 9.85 4.998c-.677-3.242 1.749-5.873 4.663-5.873 1.377 0 2.616.576 3.49 1.509a9.363 9.363 0 0 0 3.031-1.152 4.766 4.766 0 0 1-2.098 2.63 9.51 9.51 0 0 0 2.754-.743c-.649.955-1.465 1.8-2.397 2.478zM29.145.18H3.497A3.498 3.498 0 0 0 0 3.677v25.646a3.498 3.498 0 0 0 3.497 3.498h25.647a3.498 3.498 0 0 0 3.497-3.498V3.677A3.498 3.498 0 0 0 29.144.18z"/></g></g></svg>