<svg xmlns="http://www.w3.org/2000/svg" width="33" height="33" viewBox="0 0 33 33"><g><g><path fill="#fff" d="M27.964 11.08c-.102 2.265-1.69 5.376-4.758 9.318-3.17 4.117-5.85 6.179-8.044 6.179-1.362 0-2.506-1.254-3.446-3.76C9.88 16.092 9.1 12.15 7.585 12.15c-.175 0-.787.365-1.83 1.1l-1.092-1.413c2.689-2.36 5.253-4.983 6.856-5.13 1.814-.174 2.93 1.065 3.352 3.724 1.493 9.443 2.156 10.87 4.867 6.594.976-1.545 1.5-2.71 1.566-3.52.248-2.39-1.865-2.229-3.293-1.617 1.144-3.752 3.337-5.574 6.565-5.472 2.397.073 3.526 1.633 3.388 4.663zm1.18-10.9H3.497A3.498 3.498 0 0 0 0 3.677v25.646a3.498 3.498 0 0 0 3.497 3.498h25.647a3.498 3.498 0 0 0 3.497-3.498V3.677A3.498 3.498 0 0 0 29.144.18z"/></g></g></svg>