<svg xmlns="http://www.w3.org/2000/svg" width="33" height="33" viewBox="0 0 33 33"><g><g><path fill="#fff" d="M26.237 5.579l-7.49 13.165v.015l4.772 8.67c.204.372.007.736-.437.736h-3.395c-.401 0-.707-.211-.94-.634l-4.809-8.765c.168-.299 2.681-4.728 7.534-13.282.24-.423.539-.634.91-.634H25.8c.415-.007.64.342.437.729zM10.229 21.178H6.834c-.4 0-.634-.386-.437-.75L9.99 14.11c.007 0 .007-.007 0-.014L7.701 10.16c-.218-.408.015-.735.437-.735h3.396c.379 0 .692.21.94.633l2.324 4.03-3.65 6.426c-.255.451-.562.663-.919.663zM29.144.18H3.497A3.498 3.498 0 0 0 0 3.677v25.646a3.498 3.498 0 0 0 3.497 3.498h25.647a3.498 3.498 0 0 0 3.497-3.498V3.677A3.498 3.498 0 0 0 29.144.18z"/></g></g></svg>