<svg xmlns="http://www.w3.org/2000/svg" width="99.931" height="97.659" viewBox="0 0 99.931 97.659">
  <g id="factory" transform="translate(0.5 -4.857)">
    <path id="Path_43" data-name="Path 43" d="M98.182,49.272l-.728-1.116a3.355,3.355,0,0,0-4.636-.976L71.438,61.123V55.813l2.919-1.9a3.355,3.355,0,0,0,.976-4.636L74.6,48.156a3.354,3.354,0,0,0-4.636-.976L46.679,62.369,42.737,41.981a3.38,3.38,0,0,0-3.313-2.734H31.2a21.388,21.388,0,0,0-.615-3.617c.375.023.748.038,1.116.038a16.229,16.229,0,0,0,11.7-4.92A21.009,21.009,0,0,0,48.1,23.1a1.446,1.446,0,0,0-2.7-1.024,18.179,18.179,0,0,1-4.021,6.612A13.3,13.3,0,0,1,31.8,32.776a8.42,8.42,0,0,0,1.377-3.057,20,20,0,0,0,.5-5.458l7.856-7.707A1.446,1.446,0,1,0,39.5,14.489l-6.4,6.276a16.756,16.756,0,0,0-4.441-7.374l-.05-.048c5.563-4.244,14.9-4.98,18.844-5.094a.437.437,0,0,1,.341.126.442.442,0,0,1,.12.343,52.9,52.9,0,0,1-.851,7.27,1.446,1.446,0,1,0,2.841.543,55.863,55.863,0,0,0,.9-7.675,3.317,3.317,0,0,0-3.433-3.5c-4.36.126-14.835.985-21.045,6.112C20.088,7.19,10.77,6.348,6.7,6.192A3.317,3.317,0,0,0,3.236,9.658c.177,4.615,1.234,15.994,7.2,21.96a16.209,16.209,0,0,0,11.811,5.035,20.615,20.615,0,0,0,4.516-.525,8.377,8.377,0,0,0,.882-.255,18.467,18.467,0,0,1,.645,3.374H16.978a3.38,3.38,0,0,0-3.313,2.734L6.591,78.568H3.374A3.378,3.378,0,0,0,0,81.943v16.7a3.378,3.378,0,0,0,3.374,3.374H90.912a3.378,3.378,0,0,0,3.374-3.374V55.813l2.919-1.9a3.354,3.354,0,0,0,.976-4.637ZM26.129,33.306c-5.449,1.223-9.914,0-13.649-3.733C7.238,24.33,6.29,13.822,6.126,9.547a.441.441,0,0,1,.123-.342.436.436,0,0,1,.319-.123h.023c4.275.164,14.783,1.112,20.026,6.355,3.735,3.735,4.956,8.2,3.733,13.649a5.567,5.567,0,0,1-1.282,2.484,21.389,21.389,0,0,0-4.055-5.645L14.486,15.4a1.446,1.446,0,1,0-2.045,2.045L22.968,27.97a18.481,18.481,0,0,1,3.656,5.2C26.462,33.22,26.3,33.268,26.129,33.306ZM71.548,49.6a.458.458,0,0,1,.634.133l.728,1.116a.459.459,0,0,1-.133.634L39.562,73.147a.458.458,0,0,1-.634-.134L38.2,71.9a.458.458,0,0,1,.133-.634ZM2.892,98.642v-16.7a.483.483,0,0,1,.482-.482H25.453a1.446,1.446,0,1,0,0-2.892H9.537L16.5,42.53a.483.483,0,0,1,.473-.391H39.424a.483.483,0,0,1,.473.39l4.165,21.545-7.308,4.766a3.354,3.354,0,0,0-.976,4.636l.728,1.116a3.329,3.329,0,0,0,2.116,1.448,3.387,3.387,0,0,0,.7.073,3.328,3.328,0,0,0,1.823-.545l1.126-.734v3.732H32.009a1.446,1.446,0,0,0,0,2.892H42.268V99.124H32.216V86.488a1.446,1.446,0,0,0-1.446-1.446H9.951a1.446,1.446,0,0,0-1.446,1.446V99.124H3.374a.483.483,0,0,1-.482-.482Zm26.431-8.907H11.4v-1.8H29.324ZM11.4,92.627H29.324v1.8H11.4Zm0,6.5v-1.8H29.324v1.8Zm50.4,0H56.5V89.313a.458.458,0,0,1,.458-.458h4.379a.458.458,0,0,1,.458.458Zm22.85,0h-5.3V89.313a.458.458,0,0,1,.458-.458h4.379a.458.458,0,0,1,.458.458Zm6.749-.482a.483.483,0,0,1-.482.482H87.538V89.313a3.354,3.354,0,0,0-3.35-3.35h-4.38a3.354,3.354,0,0,0-3.35,3.35v9.811H71.4a3.368,3.368,0,0,0,.039-.482V84.153a1.446,1.446,0,1,0-2.892,0V98.642a.483.483,0,0,1-.482.482H64.688V89.313a3.354,3.354,0,0,0-3.35-3.35H56.959a3.354,3.354,0,0,0-3.35,3.35v9.811H45.16V72.95L68.545,57.7V77.6a1.446,1.446,0,0,0,2.892,0V70.715L91.394,57.7V98.642Zm4.231-47.156L71.437,67.261V64.577L94.4,49.6a.459.459,0,0,1,.634.133l.728,1.116a.458.458,0,0,1-.133.634Z" transform="translate(0)" fill="#95c11f" stroke="#95c11f" stroke-width="1"/>
    <path id="Path_44" data-name="Path 44" d="M114.329,244.747l6.038-9.682a2.618,2.618,0,0,0-2.222-4h-2.107V225.17a2.618,2.618,0,0,0-4.84-1.386l-6.038,9.682a2.618,2.618,0,0,0,2.222,4h2.107v5.891a2.6,2.6,0,0,0,1.9,2.517,2.662,2.662,0,0,0,.734.1A2.593,2.593,0,0,0,114.329,244.747Zm-3.394-10.169h-3.059l5.27-8.451v6.38a1.446,1.446,0,0,0,1.446,1.446h3.059l-5.27,8.451v-6.38A1.446,1.446,0,0,0,110.935,234.578Z" transform="translate(-84.563 -175.311)" fill="#95c11f" stroke="#95c11f" stroke-width="1"/>
    <path id="Path_45" data-name="Path 45" d="M177.816,448.859a1.446,1.446,0,0,0,1.446-1.446v-1.47a1.446,1.446,0,0,0-2.892,0v1.47A1.446,1.446,0,0,0,177.816,448.859Z" transform="translate(-142.362 -354.462)" fill="#95c11f" stroke="#95c11f" stroke-width="1"/>
  </g>
</svg>
