<svg xmlns="http://www.w3.org/2000/svg" width="101.815" height="78.054" viewBox="0 0 101.815 78.054"><defs><style>.a{fill:#95c11f;stroke:#95c11f;}</style></defs><path class="a" d="M99.339,121.711H96.634v-29.2a1.476,1.476,0,0,0-1.476-1.476H74.231v-29.2a1.476,1.476,0,0,0-1.476-1.476H39.8a1.476,1.476,0,0,0,0,2.953h5.234V73.781a1.476,1.476,0,0,0,1.476,1.476H54.2a1.476,1.476,0,0,0,1.476-1.476V63.311h15.6V91.034H29.425V63.311h4.468a1.476,1.476,0,1,0,0-2.953H27.948a1.476,1.476,0,0,0-1.476,1.476v29.2H5.6a1.476,1.476,0,0,0-1.476,1.476v14.222a1.476,1.476,0,1,0,2.953,0V93.987h15.6v10.471a1.476,1.476,0,0,0,1.476,1.476h7.692a1.476,1.476,0,0,0,1.476-1.476V93.987h15.6v27.724H7.078v-9.075a1.476,1.476,0,0,0-2.953,0v9.075H1.476A1.476,1.476,0,0,0,0,123.187v6.619a1.476,1.476,0,0,0,1.476,1.476H4.125v3.108a3.026,3.026,0,0,0,3.022,3.022h9.837a3.026,3.026,0,0,0,3.022-3.022v-3.108h22.46v3.108a3.026,3.026,0,0,0,3.022,3.022h9.837a3.026,3.026,0,0,0,3.022-3.022v-3.108h7.608a1.476,1.476,0,0,0,0-2.953h-63v-3.666h94.91v3.666h-26a1.476,1.476,0,0,0,0,2.953h8.949v3.108a3.026,3.026,0,0,0,3.022,3.022h9.837a3.026,3.026,0,0,0,3.022-3.022v-3.108h2.649a1.476,1.476,0,0,0,1.476-1.476v-6.619A1.476,1.476,0,0,0,99.339,121.711ZM52.721,72.305h-4.74V63.311h4.74ZM55.4,131.282v3.108a.07.07,0,0,1-.07.07H45.489a.07.07,0,0,1-.07-.07v-3.108Zm-38.341,0v3.108a.07.07,0,0,1-.07.07H7.148a.07.07,0,0,1-.07-.07v-3.108Zm58.069-37.3v8.995h-4.74V93.987Zm-44.75,8.995H25.635V93.987h4.739Zm21.51-8.995H67.432v10.471a1.476,1.476,0,0,0,1.476,1.476H76.6a1.476,1.476,0,0,0,1.476-1.476V93.987h15.6v27.724h-41.8Zm41.854,40.4a.07.07,0,0,1-.07.07H83.83a.07.07,0,0,1-.07-.07v-3.108h9.977v3.108Z" transform="translate(0.5 -59.858)"/></svg>