<svg xmlns="http://www.w3.org/2000/svg" width="93.725" height="85.461" viewBox="0 0 93.725 85.461">
  <g id="tractor" transform="translate(0.5)">
    <path id="Path_46" data-name="Path 46" d="M149.252,298.28l1.063-1.063-1.927-1.927-1.063,1.063a6.764,6.764,0,0,0-2.391-.994v-1.5H142.21v1.5a6.764,6.764,0,0,0-2.391.994l-1.063-1.063-1.927,1.927,1.063,1.063a6.768,6.768,0,0,0-.994,2.391h-1.5V303.4h1.5a6.787,6.787,0,0,0,.994,2.391l-1.063,1.063,1.926,1.926,1.063-1.063a6.766,6.766,0,0,0,2.39.994v1.5h2.725v-1.5a6.769,6.769,0,0,0,2.391-.994l1.063,1.063,1.926-1.926-1.063-1.063a6.774,6.774,0,0,0,.994-2.391h1.5v-2.725h-1.5A6.769,6.769,0,0,0,149.252,298.28Zm-5.68,7.841a4.087,4.087,0,1,1,4.087-4.087A4.092,4.092,0,0,1,143.572,306.12Zm0,0" transform="translate(-110.878 -240.231)" fill="#95c11f" stroke="#95c11f" stroke-width="1"/>
    <path id="Path_47" data-name="Path 47" d="M131.843,204.6V190.514a5.464,5.464,0,0,0-5.457-5.457H104.257V181.73l-3.135-2.85,1.4-1.4-1.926-1.926-4.816,4.816L97.7,182.3l1.49-1.49,2.339,2.127v2.122H96.589a22.99,22.99,0,0,0-8.339-7.782V172.8a6.819,6.819,0,0,0-6.811-6.811H80.077v8.677A22.819,22.819,0,1,0,94.546,212.3h26.4a8.174,8.174,0,1,0,10.9-7.705ZM82.8,168.943a4.1,4.1,0,0,1,2.724,3.853v3.218a22.563,22.563,0,0,0-2.724-.856Zm-5.449,48.468a20.093,20.093,0,1,1,20.094-20.093,20.116,20.116,0,0,1-20.094,20.093Zm44.061-7.833H96.589a22.781,22.781,0,0,0,1.491-21.8h28.307a2.736,2.736,0,0,1,2.733,2.733v1.354H123.67v8.174h2.724v-5.449h2.725v9.536a8.187,8.187,0,0,0-7.705,5.449Zm7.705,8.173a5.449,5.449,0,1,1,5.449-5.449A5.455,5.455,0,0,1,129.119,217.751Zm0,0" transform="translate(-44.658 -135.515)" fill="#95c11f" stroke="#95c11f" stroke-width="1"/>
    <path id="Path_48" data-name="Path 48" d="M323.449,346.516H339.8v2.724H323.449Zm0,0" transform="translate(-264.871 -283.351)" fill="#95c11f" stroke="#95c11f" stroke-width="1"/>
    <path id="Path_49" data-name="Path 49" d="M323.449,376.6H339.8v2.724H323.449Zm0,0" transform="translate(-264.871 -307.988)" fill="#95c11f" stroke="#95c11f" stroke-width="1"/>
    <path id="Path_50" data-name="Path 50" d="M398.668,301.383h2.724v2.724h-2.724Zm0,0" transform="translate(-326.468 -246.392)" fill="#95c11f" stroke="#95c11f" stroke-width="1"/>
    <path id="Path_51" data-name="Path 51" d="M368.578,301.383H371.3v2.724h-2.725Zm0,0" transform="translate(-301.827 -246.392)" fill="#95c11f" stroke="#95c11f" stroke-width="1"/>
    <path id="Path_52" data-name="Path 52" d="M338.492,301.383h2.724v2.724h-2.724Zm0,0" transform="translate(-277.19 -246.392)" fill="#95c11f" stroke="#95c11f" stroke-width="1"/>
    <path id="Path_53" data-name="Path 53" d="M173.008,331.469h2.724v2.725h-2.724Zm0,0" transform="translate(-141.676 -271.029)" fill="#95c11f" stroke="#95c11f" stroke-width="1"/>
    <path id="Path_54" data-name="Path 54" d="M126.324,269.873a13.554,13.554,0,0,0-3.012-7.254l1.017-1.017-1.927-1.926-1.016,1.017a13.56,13.56,0,0,0-7.254-3.012v-1.43h-2.724v1.43a13.552,13.552,0,0,0-7.254,3.012l-1.017-1.017-1.926,1.926,1.017,1.017a13.554,13.554,0,0,0-3.012,7.254H97.785V272.6h1.431a13.55,13.55,0,0,0,3.012,7.253l-1.017,1.017,1.926,1.927,1.017-1.017a13.565,13.565,0,0,0,7.254,3.012v1.43h2.724v-1.43a13.565,13.565,0,0,0,7.254-3.012l1.016,1.017,1.927-1.927-1.017-1.017a13.555,13.555,0,0,0,3.012-7.253h1.43v-2.725ZM112.77,282.133a10.9,10.9,0,1,1,10.9-10.9A10.911,10.911,0,0,1,112.77,282.133Zm0,0" transform="translate(-80.076 -209.433)" fill="#95c11f" stroke="#95c11f" stroke-width="1"/>
    <path id="Path_55" data-name="Path 55" d="M458.844,414.211h2.724v2.725h-2.724Zm0,0" transform="translate(-375.746 -338.786)" fill="#95c11f" stroke="#95c11f" stroke-width="1"/>
    <path id="Path_56" data-name="Path 56" d="M6.811,51.673h8.174A8.183,8.183,0,0,0,23.159,43.5a5.455,5.455,0,0,1,5.449-5.449h9.536a4.087,4.087,0,1,0,0-8.174H13.963a2.043,2.043,0,1,1,0-4.087H53.129V23.066H13.963a4.768,4.768,0,1,0,0,9.536h24.18a1.363,1.363,0,0,1,0,2.725H28.607A8.183,8.183,0,0,0,20.434,43.5a5.455,5.455,0,0,1-5.449,5.449H6.811A6.819,6.819,0,0,0,0,55.76V74.832a6.819,6.819,0,0,0,6.811,6.812V78.919a4.091,4.091,0,0,1-4.087-4.087V55.76a4.092,4.092,0,0,1,4.087-4.087Zm0,0" transform="translate(0 -18.479)" fill="#95c11f" stroke="#95c11f" stroke-width="1"/>
    <path id="Path_57" data-name="Path 57" d="M308.4,23.066h2.725v2.724H308.4Zm0,0" transform="translate(-252.549 -18.48)" fill="#95c11f" stroke="#95c11f" stroke-width="1"/>
    <path id="Path_58" data-name="Path 58" d="M338.492,23.066h2.724v2.724h-2.724Zm0,0" transform="translate(-277.19 -18.48)" fill="#95c11f" stroke="#95c11f" stroke-width="1"/>
    <path id="Path_59" data-name="Path 59" d="M368.578,23.066H371.3v2.724h-2.725Zm0,0" transform="translate(-301.827 -18.48)" fill="#95c11f" stroke="#95c11f" stroke-width="1"/>
    <path id="Path_60" data-name="Path 60" d="M419.6,4.587V1.862h-6.811V.5h-8.174a5.449,5.449,0,1,0,0,10.9h8.174V10.035H419.6V7.311h-6.811V4.587Zm-9.536,4.087h-5.449a2.725,2.725,0,0,1,0-5.449h5.449Zm0,0" transform="translate(-326.877)" fill="#95c11f" stroke="#95c11f" stroke-width="1"/>
  </g>
</svg>
