<svg xmlns="http://www.w3.org/2000/svg" width="106.338" height="79.178" viewBox="0 0 106.338 79.178"><defs><style>.a{fill:#95c11f;stroke:#95c11f;}</style></defs><g transform="translate(0.5 -65.508)"><g transform="translate(20.573 78.352)"><path class="a" d="M102.052,126.006a2.057,2.057,0,1,0,2.057,2.057A2.058,2.058,0,0,0,102.052,126.006Z" transform="translate(-99.995 -126.006)"/></g><g transform="translate(0 66.008)"><g transform="translate(0 0)"><path class="a" d="M96.889,95.948l-2.977-5.954a6.139,6.139,0,0,0-5.521-3.413H71.184V72.18a6.179,6.179,0,0,0-6.172-6.172H6.172A6.179,6.179,0,0,0,0,72.18v53.49a6.179,6.179,0,0,0,6.172,6.172h6.172a12.294,12.294,0,0,0,3.153,8.229H2.057a2.057,2.057,0,0,0,0,4.115h101.22a2.057,2.057,0,1,0,0-4.115H98.067a12.293,12.293,0,0,0,3.153-8.229c0-.117-.006-.234-.009-.351a6.182,6.182,0,0,0,4.123-5.821V114.3C105.335,111.9,105.811,114.138,96.889,95.948Zm-3.112,2.977,6.172,12.344H79.413V98.925ZM4.115,115.384H8.229V119.5H4.115Zm20.573,24.688a8.239,8.239,0,0,1-8.229-8.229,8.121,8.121,0,0,1,.167-1.648,8.229,8.229,0,0,1,16.125,0l0,.009a8.089,8.089,0,0,1,.165,1.64A8.239,8.239,0,0,1,24.688,140.072Zm0-20.573a12.386,12.386,0,0,0-11.638,8.229H6.172a2.06,2.06,0,0,1-2.057-2.057v-2.057h6.172a2.058,2.058,0,0,0,2.057-2.057v-8.229a2.057,2.057,0,0,0-2.057-2.057H4.115V72.18a2.06,2.06,0,0,1,2.057-2.057H65.011a2.06,2.06,0,0,1,2.057,2.057v55.548H36.325A12.387,12.387,0,0,0,24.688,119.5Zm9.191,20.573a12.293,12.293,0,0,0,3.153-8.229h39.5a12.294,12.294,0,0,0,3.153,8.229Zm55,0a8.239,8.239,0,0,1-8.229-8.229,8.121,8.121,0,0,1,.167-1.648,8.229,8.229,0,0,1,16.125,0l0,.009a8.089,8.089,0,0,1,.165,1.64A8.238,8.238,0,0,1,88.876,140.072Zm12.344-14.4a2.055,2.055,0,0,1-.853,1.664,12.344,12.344,0,0,0-23.13.393H71.183V90.7H88.391a2.047,2.047,0,0,1,1.84,1.138l1.488,2.977H77.356A2.057,2.057,0,0,0,75.3,96.868v16.459a2.057,2.057,0,0,0,2.057,2.057H101.22Z" transform="translate(0 -66.008)"/></g></g><g transform="translate(28.803 78.352)"><path class="a" d="M167.974,126.006H142.051a2.057,2.057,0,1,0,0,4.115h25.922a2.057,2.057,0,1,0,0-4.115Z" transform="translate(-139.994 -126.006)"/></g><g transform="translate(37.032 86.581)"><g transform="translate(0 0)"><path class="a" d="M199.743,166H182.049a2.057,2.057,0,1,0,0,4.115h17.693a2.057,2.057,0,0,0,0-4.115Z" transform="translate(-179.992 -166.004)"/></g></g><g transform="translate(84.762 127.728)"><path class="a" d="M416.1,366a4.115,4.115,0,1,0,4.115,4.115A4.119,4.119,0,0,0,416.1,366Z" transform="translate(-411.983 -365.996)"/></g><g transform="translate(20.573 127.728)"><path class="a" d="M104.111,366a4.115,4.115,0,1,0,4.115,4.115A4.119,4.119,0,0,0,104.111,366Z" transform="translate(-99.996 -365.996)"/></g></g></svg>