<svg xmlns="http://www.w3.org/2000/svg" width="90.998" height="90.998" viewBox="0 0 90.998 90.998"><defs><style>.a{fill:#95c11f;stroke:#95c11f;}</style></defs><path class="a" d="M91,60.515V47.53a7.274,7.274,0,0,0-5.349-7l-3.279-.894a7.169,7.169,0,0,0,1.37-3.8V20.919a2.894,2.894,0,0,0,1.452-2.5v-2.9a2.906,2.906,0,0,0-2.9-2.9H82.2A13.053,13.053,0,0,0,56.9,9.779a13.042,13.042,0,0,0-21.794,0A13.053,13.053,0,0,0,9.8,12.613H9.709a2.906,2.906,0,0,0-2.9,2.9v2.9a2.893,2.893,0,0,0,1.186,2.328,5.748,5.748,0,0,0-1.186,3.478,5.812,5.812,0,0,0,5.806,5.806h.428a10.185,10.185,0,0,0,3.927,5.423v2.177l-10.618,2.9A7.275,7.275,0,0,0,1,47.53V60.515H19.145a33.264,33.264,0,0,0-9.4,22.032A4.343,4.343,0,0,0,11.161,91H80.837a4.343,4.343,0,0,0,1.421-8.451,33.264,33.264,0,0,0-9.4-22.032Zm-23.225-4.3v-1.51H79.385v2.9H69.65C69.04,57.127,68.416,56.659,67.773,56.218ZM43.1,79.385a2.9,2.9,0,1,1,2.9,2.9A2.906,2.906,0,0,1,43.1,79.385ZM46,73.579a5.812,5.812,0,0,0-5.806,5.806,5.747,5.747,0,0,0,.807,2.9H37.8a8.586,8.586,0,0,1-.51-2.9,8.709,8.709,0,0,1,17.419,0,8.586,8.586,0,0,1-.51,2.9H51a5.747,5.747,0,0,0,.807-2.9A5.812,5.812,0,0,0,46,73.579ZM12.613,54.709H24.225v1.51q-.965.664-1.877,1.394H12.613ZM39.2,40.528l-10.618-2.9V35.455a10.206,10.206,0,0,0,3.388-4.03,5.763,5.763,0,0,0,3.87,1.51h.428a10.185,10.185,0,0,0,3.927,5.423v2.177l-.547.15c-.15-.051-.293-.115-.447-.157ZM59.063,18.419v2.9H32.935v-2.9Zm23.225-2.9v2.9H61.966a2.906,2.906,0,0,0-2.9-2.9ZM72.127,38.258l-2.9,3.871-2.9-3.871v-1.4a10.055,10.055,0,0,0,5.806,0ZM64.87,54.427A33.184,33.184,0,0,0,48.9,50.354H47.451v-2.42L50.923,43.3l10.739,2.929a4.364,4.364,0,0,1,3.208,4.2ZM48.9,68.155a11.23,11.23,0,0,0-5.806,0v-14.9H48.9ZM35.838,24.225v5.806a2.9,2.9,0,1,1,0-5.806Zm2.9,0H53.257v5.806a7.258,7.258,0,0,1-14.516,0Zm20.322,2.9a2.906,2.906,0,0,1-2.9,2.9V24.225A2.906,2.906,0,0,1,59.063,27.128ZM43.1,39.764a10.055,10.055,0,0,0,5.806,0v1.4L46,45.032l-2.9-3.871Zm8.709.771V38.358a10.241,10.241,0,0,0,2.9-3.119v.6a7.181,7.181,0,0,0,1.369,3.8l-3.278.894c-.154.042-.3.1-.447.157Zm7.365-1.745a4.763,4.763,0,0,1-1.559-2.953V32.729a5.785,5.785,0,0,0,2.418-1.3,10.206,10.206,0,0,0,3.388,4.03v2.177Zm10.054-4.4a7.266,7.266,0,0,1-7.258-7.258V21.322H76.482v5.806A7.266,7.266,0,0,1,69.224,34.386ZM41.075,43.3l3.472,4.631v2.42H43.1a33.184,33.184,0,0,0-15.967,4.073V50.434a4.364,4.364,0,0,1,3.208-4.2Zm-.883,10.1v15.94a11.611,11.611,0,0,0-5.806,10.042,11.421,11.421,0,0,0,.388,2.9H12.687A30.5,30.5,0,0,1,40.193,53.4Zm11.613,15.94V53.4A30.5,30.5,0,0,1,79.311,82.289H57.224a11.421,11.421,0,0,0,.388-2.9,11.612,11.612,0,0,0-5.806-10.042ZM88.095,47.53V57.612H82.289V48.9h-2.9v2.9H67.773V50.434a7.274,7.274,0,0,0-5.349-7L57.8,42.171,64.3,40.4l4.925,6.567L74.148,40.4l10.739,2.929a4.361,4.361,0,0,1,3.208,4.2Zm-13.064-9.9V35.455a10.151,10.151,0,0,0,4.355-8.326V21.322h1.452V35.816a4.759,4.759,0,0,1-1.559,2.974ZM69.224,3.9a10.168,10.168,0,0,1,10.045,8.709H59.179A10.168,10.168,0,0,1,69.224,3.9ZM46,6.806a10.168,10.168,0,0,1,10.045,8.709H35.954A10.168,10.168,0,0,1,46,6.806ZM22.774,3.9a10.168,10.168,0,0,1,10.045,8.709H12.729A10.168,10.168,0,0,1,22.774,3.9ZM9.709,15.516H32.935a2.906,2.906,0,0,0-2.9,2.9H9.709Zm0,8.709a2.906,2.906,0,0,1,2.9-2.9v5.806A2.906,2.906,0,0,1,9.709,24.225Zm5.806,2.9V21.322H30.032v5.806a7.258,7.258,0,1,1-14.516,0ZM22.774,37.29a10.1,10.1,0,0,0,2.9-.428v1.4l-2.9,3.871-2.9-3.871v-1.4A10.1,10.1,0,0,0,22.774,37.29ZM3.9,47.53a4.364,4.364,0,0,1,3.208-4.2L17.85,40.4l4.924,6.567L27.7,40.4l6.494,1.771-4.619,1.26a7.272,7.272,0,0,0-5.348,7v1.372H12.613V48.9h-2.9v8.709H3.9ZM80.837,88.095H11.161a1.452,1.452,0,1,1,0-2.9H80.837a1.452,1.452,0,0,1,0,2.9Z" transform="translate(-0.5 -0.5)"/></svg>